<svg width="24" height="24" viewBox="0 0 24 24" fill="none" xmlns="http://www.w3.org/2000/svg">
<path fill-rule="evenodd" clip-rule="evenodd" d="M6.16694 5.8128C6.45983 5.51991 6.9347 5.51991 7.2276 5.8128L17.4806 16.0658C17.7735 16.3587 17.7735 16.8336 17.4806 17.1265C17.1878 17.4194 16.7129 17.4194 16.42 17.1265L6.16694 6.87346C5.87404 6.58057 5.87404 6.10569 6.16694 5.8128Z" fill="666666"/>
<path fill-rule="evenodd" clip-rule="evenodd" d="M6.52056 17.1265C6.22767 16.8336 6.22767 16.3588 6.52056 16.0659L16.7736 5.81281C17.0665 5.51992 17.5414 5.51992 17.8343 5.81281C18.1272 6.10571 18.1272 6.58058 17.8343 6.87347L7.58122 17.1265C7.28833 17.4194 6.81346 17.4194 6.52056 17.1265Z" fill="666666"/>
</svg>
