<svg width="24" height="24" viewBox="0 0 24 24" fill="none" xmlns="http://www.w3.org/2000/svg">
<path fill-rule="evenodd" clip-rule="evenodd" d="M10.658 4.5C7.25705 4.5 4.5 7.25705 4.5 10.658C4.5 14.059 7.25705 16.8161 10.658 16.8161C14.059 16.8161 16.8161 14.059 16.8161 10.658C16.8161 7.25705 14.059 4.5 10.658 4.5ZM3.5 10.658C3.5 6.70477 6.70477 3.5 10.658 3.5C14.6113 3.5 17.8161 6.70477 17.8161 10.658C17.8161 14.6113 14.6113 17.8161 10.658 17.8161C6.70477 17.8161 3.5 14.6113 3.5 10.658Z" fill="#004E29"/>
<path fill-rule="evenodd" clip-rule="evenodd" d="M19.6506 20.7558L14.5006 15.7217L15.1996 15.0066L20.3496 20.0407C20.5471 20.2338 20.5507 20.5503 20.3576 20.7478C20.1646 20.9453 19.848 20.9489 19.6506 20.7558Z" fill="#004E29"/>
</svg>
